<svg id="Capa_1" data-name="Capa 1" xmlns="http://www.w3.org/2000/svg" viewBox="0 0 508.24 472.2"><defs><style>.cls-1{fill:#7b9e7b;}.cls-2,.cls-3,.cls-4{fill:none;stroke-miterlimit:10;}.cls-2,.cls-3{stroke:#475649;stroke-width:0.25px;}.cls-2{stroke-dasharray:14.77 6.89;}.cls-4{stroke:#fff;}.cls-5{opacity:0.14;}.cls-6{opacity:0.15;}.cls-7{fill:#917040;}.cls-8{fill:#2c448c;}.cls-9{fill:#dbcda1;}.cls-10{fill:#731989;}.cls-11{fill:#a0892a;}.cls-12{fill:#8e1b0c;}.cls-13{fill:#23190b;}.cls-14{fill:#bc9153;}.cls-15{fill:#0a6d0a;}.cls-16{fill:#a8824a;}.cls-17{fill:#994c2f;}.cls-18{fill:#35323f;}.cls-19{fill:#2f1354;}.cls-20{fill:#bab9b6;}.cls-21{fill:#35488e;}.cls-22{fill:#726e6a;}</style></defs><title>distancia-fisica-b-sombras</title><g id="distancias-b"><circle id="intimate-space" class="cls-1" cx="267.04" cy="271.7" r="50"/><g id="personal-space"><circle class="cls-2" cx="267.04" cy="271.7" r="100"/></g><circle id="social-space" class="cls-3" cx="267.04" cy="271.7" r="150"/><circle id="covid19-space" class="cls-4" cx="267.04" cy="271.7" r="200"/></g><path class="cls-5" d="M251.31,235.09l-21.9-16.19a8.89,8.89,0,0,0-3.52-9.08l-32.67-23.2a8.87,8.87,0,0,0-12.33,2.09l-3.2,4.5a8.85,8.85,0,1,0-6,5.81,8.73,8.73,0,0,0,2.89-1.45l-4.11,5.79a8.88,8.88,0,0,0,2.09,12.33l32.68,23.2a8.84,8.84,0,0,0,8.37,1l22.08,16.32a6.64,6.64,0,0,0,9.27-1.39l7.73-10.45A6.66,6.66,0,0,0,251.31,235.09Z" transform="translate(17.04 21.7)"/><path class="cls-5" d="M437.05,80.77,414,66.19a8.87,8.87,0,0,0-4.15-8.81L375.64,36.57a8.87,8.87,0,0,0-12.15,3l-2.87,4.72A8.84,8.84,0,0,0,349,33.87a8.84,8.84,0,1,0,6.08,16.61,8.93,8.93,0,0,0,2.78-1.66l-3.69,6.07a8.87,8.87,0,0,0,3,12.15l34.25,20.81a8.83,8.83,0,0,0,8.42.4L423,103a6.64,6.64,0,0,0,9.15-2l7-11A6.65,6.65,0,0,0,437.05,80.77Z" transform="translate(17.04 21.7)"/><path class="cls-5" d="M218.61,275.87l-18-11.42a7,7,0,0,0-3.26-6.9l-26.84-16.31a7,7,0,0,0-9.52,2.32l-2.25,3.7a6.81,6.81,0,0,0-.22-4,6.93,6.93,0,1,0-4.13,8.89,7,7,0,0,0,2.18-1.3l-2.89,4.75a7,7,0,0,0,2.32,9.53l26.84,16.3a7,7,0,0,0,6.6.32l18.17,11.52a5.21,5.21,0,0,0,7.17-1.61l5.46-8.6A5.23,5.23,0,0,0,218.61,275.87Z" transform="translate(17.04 21.7)"/><path class="cls-6" d="M112.11,45.79l-21.46-20a9.07,9.07,0,0,0-2.43-10L56.05-13.14a10.15,10.15,0,0,0-13.84.51L38-8.33a9,9,0,0,0,.89-5.39,9.58,9.58,0,0,0-11-7.87,9.59,9.59,0,0,0-8.37,10.67A9.59,9.59,0,0,0,30.52-3a10,10,0,0,0,3.39-1.13L28.5,1.34a9.11,9.11,0,0,0,0,12.88L49.76,47,22.62,26.5l-1.57-2.34A10.76,10.76,0,0,0,6.74,21L1.29,24.28A9.54,9.54,0,0,0,3.63,19,10.13,10.13,0,0,0-5.6,8.09,10.12,10.12,0,0,0-17,16.75,10.12,10.12,0,0,0-7.76,27.69,10.73,10.73,0,0,0-4,27.44l-7,4.2a9.56,9.56,0,0,0-3.15,13.59L11.17,83.16a10.61,10.61,0,0,0,8.65,4.62l16.82,26.29a8.06,8.06,0,0,0,10.69,2.55l13-7.45A7.17,7.17,0,0,0,62.87,99L46.19,73a9.5,9.5,0,0,0,.17-10.86L36.84,47.82l19,5L50.1,33.68,61,43.47a10,10,0,0,0,9,2.2L91.67,65.86a7.61,7.61,0,0,0,10.39-.19l10.12-9.93A6.86,6.86,0,0,0,112.11,45.79Z" transform="translate(17.04 21.7)"/><path class="cls-5" d="M479.09,300.57l-26.92-11.36a9.5,9.5,0,0,0-5.95-8.58l-39.91-16A9.51,9.51,0,0,0,394,270l-2.2,5.51A9.49,9.49,0,1,0,387,283a9.32,9.32,0,0,0,2.65-2.24l-2.83,7.07a9.52,9.52,0,0,0,5.29,12.33l25.66,10.26L426.33,327l-1-1a4.86,4.86,0,0,0-6.85,0l-2.14,2.15a4.73,4.73,0,0,0,.5-2.77,4.85,4.85,0,1,0-4.25,5.38,4.77,4.77,0,0,0,1.69-.52L411.55,333a4.86,4.86,0,0,0,0,6.86l15.6,15.47a4.84,4.84,0,0,0,4.44,1.29l10.49,10.8a3.64,3.64,0,0,0,5.14.08l5.12-5a3.64,3.64,0,0,0,.07-5.14L442,346.68a4.86,4.86,0,0,0-1.09-5.22L434.46,335l-11.95-22.69,9.51,3.8a9.5,9.5,0,0,0,9-1.06l27.13,11.45a7.13,7.13,0,0,0,9.32-3.79l5.42-12.85A7.13,7.13,0,0,0,479.09,300.57Z" transform="translate(17.04 21.7)"/><g id="personas-b"><g id="padre"><circle class="cls-7" cx="238.94" cy="282.7" r="5"/><circle class="cls-7" cx="295.14" cy="282.7" r="5"/><path class="cls-8" d="M267.7,235c-4.5-1.4-30.9-1.4-35.4,0-11.2,3.7-15.3,25.2-15.3,25.2l9.3,3.3,4.8-8.3c18.9,2.4,18.9,2.4,37.9,0,.7,1.2,4.8,8.3,4.8,8.3l9.3-3.3C283,260.3,278.9,238.8,267.7,235Z" transform="translate(17.04 21.7)"/><path class="cls-7" d="M241.9,251.3a9.85,9.85,0,0,0,8.1,4.1,10.13,10.13,0,0,0,8.1-4.1,55,55,0,0,1-16.2,0Z" transform="translate(17.04 21.7)"/><path d="M249.9,235.4a10,10,0,0,0-10,10,9.9,9.9,0,0,0,1.9,5.9,53.22,53.22,0,0,0,8.1.6,55.2,55.2,0,0,0,8.1-.6,10,10,0,0,0-8.1-15.9Z" transform="translate(17.04 21.7)"/></g><g id="colega"><circle class="cls-9" cx="410.04" cy="89.4" r="5"/><circle class="cls-9" cx="446.84" cy="131.8" r="5"/><path class="cls-10" d="M442.6,85.2c-1.9-4.3-19.2-24.3-23.2-26.8-10.2-6-29.1,5-29.1,5l3.6,9.1s9.4-1.9,9.4-1.8C414,86.6,414,86.6,428.2,99.4c-.4,1.3-3.1,9.1-3.1,9.1l8.5,4.9C433.6,113.3,447.2,96.2,442.6,85.2Z" transform="translate(17.04 21.7)"/><path class="cls-9" d="M413.4,76.4A10,10,0,0,0,424,88.6a51.88,51.88,0,0,1-5.8-5.7A57.15,57.15,0,0,1,413.4,76.4Z" transform="translate(17.04 21.7)"/><path class="cls-11" d="M430.7,72a10,10,0,0,0-14.1-1,10.17,10.17,0,0,0-3.2,5.3,49.48,49.48,0,0,0,4.8,6.5,44.57,44.57,0,0,0,5.8,5.7,10.34,10.34,0,0,0,5.7-2.4A10,10,0,0,0,430.7,72Z" transform="translate(17.04 21.7)"/></g><g id="hijo-mayor"><circle class="cls-7" cx="249.94" cy="311.2" r="4"/><circle class="cls-7" cx="221.64" cy="276.2" r="4"/><path class="cls-12" d="M193.7,274c1.4,3.5,14.7,19.9,17.8,22,8,5.1,23.4-3.2,23.4-3.2l-2.6-7.4-7.6,1.2c-8-12.9-8-12.9-19.1-23.6.4-1.1,2.8-7.2,2.8-7.2l-6.7-4.1C201.7,251.8,190.4,265.2,193.7,274Z" transform="translate(17.04 21.7)"/><path class="cls-7" d="M216.8,281.9a8,8,0,0,0-1.5-7.1,7.94,7.94,0,0,0-6.6-3,32.66,32.66,0,0,1,4.4,4.7A57.74,57.74,0,0,1,216.8,281.9Z" transform="translate(17.04 21.7)"/><path class="cls-13" d="M202.9,284.9a8.07,8.07,0,0,0,11.3,1.2,7.68,7.68,0,0,0,2.7-4.2,46,46,0,0,0-3.7-5.3,49.73,49.73,0,0,0-4.4-4.7,8,8,0,0,0-5.9,13Z" transform="translate(17.04 21.7)"/></g><g id="mama-hijo-menor"><g id="mama-hijo-menor-2" data-name="mama-hijo-menor"><circle class="cls-14" cx="474.44" cy="364.1" r="3.5"/><circle class="cls-14" cx="446.64" cy="391.9" r="3.5"/><path class="cls-15" d="M447.6,378c2.9-1.5,16-14.6,17.5-17.5,3.7-7.4-4.9-20.1-4.9-20.1l-6.2,3s1.8,6.5,1.7,6.5c-10.5,8.2-10.5,8.2-18.8,18.8-1-.2-6.5-1.7-6.5-1.7l-3,6.2C427.5,373.1,440.2,381.7,447.6,378Z" transform="translate(17.04 21.7)"/><path class="cls-14" d="M452.3,357.1a6.87,6.87,0,0,0-6,2,7.17,7.17,0,0,0-2,6,37.92,37.92,0,0,1,8-8Z" transform="translate(17.04 21.7)"/><path d="M456.2,369a7.06,7.06,0,0,0,0-9.9,7.7,7.7,0,0,0-3.9-2,37.92,37.92,0,0,0-8,8,7,7,0,0,0,11.9,3.9Z" transform="translate(17.04 21.7)"/><circle class="cls-16" cx="477.64" cy="301.2" r="5"/><circle class="cls-16" cx="477.64" cy="357.4" r="5"/><path class="cls-17" d="M486.5,325.3c1.4-4.5,1.4-30.9,0-35.4-3.7-11.2-25.2-15.3-25.2-15.3l-3.3,9.3,8.3,4.8c-2.4,18.9-2.4,18.9,0,37.9l-8.3,4.8,3.3,9.3C461.3,340.6,482.8,336.5,486.5,325.3Z" transform="translate(17.04 21.7)"/><path class="cls-16" d="M470.3,299.5a9.85,9.85,0,0,0-4.1,8.1,10.13,10.13,0,0,0,4.1,8.1,53.22,53.22,0,0,1-.6-8.1A36,36,0,0,1,470.3,299.5Z" transform="translate(17.04 21.7)"/></g><path class="cls-18" d="M487.6,303.9a3.08,3.08,0,0,0-1.9.6,10.12,10.12,0,0,0-9.5-7,9.9,9.9,0,0,0-5.9,1.9,53.22,53.22,0,0,0-.6,8.1,55.2,55.2,0,0,0,.6,8.1,10.06,10.06,0,0,0,15.5-5.2,3.83,3.83,0,0,0,1.9.5,3.54,3.54,0,0,0,3.5-3.5A3.63,3.63,0,0,0,487.6,303.9Z" transform="translate(17.04 21.7)"/></g><g id="abuelos"><circle class="cls-7" cx="78.04" cy="161.9" r="4.5"/><circle class="cls-7" cx="97.04" cy="115.1" r="4.5"/><path class="cls-19" d="M54.8,93.2c-2.7,3.3-11.6,25.3-12,29.5C42.1,133.3,58.7,144,58.7,144l5.9-6.6-5.3-6.8c8.4-14.9,8.4-14.9,12.8-31.6,1.2-.2,8.6-1.2,8.6-1.2l.4-8.8S61.7,85.2,54.8,93.2Z" transform="translate(17.04 21.7)"/><path class="cls-7" d="M59.7,120.3a8.93,8.93,0,0,0,5.4-13.4,36.78,36.78,0,0,1-2.2,6.9A65.39,65.39,0,0,1,59.7,120.3Z" transform="translate(17.04 21.7)"/><path class="cls-20" d="M60.9,103.2a8.89,8.89,0,0,0-10.1,2.4,3.35,3.35,0,0,0-4.1-1.4,3.23,3.23,0,0,0-1.7,4.3,3.49,3.49,0,0,0,3.7,2,9,9,0,0,0,11.1,9.8,44,44,0,0,0,3.3-6.5,61.22,61.22,0,0,0,2.2-6.9A10.56,10.56,0,0,0,60.9,103.2Z" transform="translate(17.04 21.7)"/><circle class="cls-14" cx="102.04" cy="108.2" r="5"/><circle class="cls-14" cx="153.84" cy="86.3" r="5"/><path class="cls-21" d="M117,44.8c-4.7.5-29,10.7-32.6,13.8-8.8,7.8-4.3,29.2-4.3,29.2l9.8-.6,1.2-9.5c18.3-5.2,18.3-5.2,34.9-14.8,1.1.8,7.6,5.8,7.6,5.8l7.3-6.6C141,62,128.8,43.9,117,44.8Z" transform="translate(17.04 21.7)"/><g id="cabeza"><circle id="pelao" class="cls-14" cx="121.74" cy="83.1" r="9.5"/><path id="pelaes" class="cls-22" d="M100.8,52a10,10,0,0,0-1.2,17.8c2.6-.7-4.8-11,3-13.9,7.9-2.5,9.5,9.1,11.8,7.6a10.25,10.25,0,0,0-.5-6.2A10.08,10.08,0,0,0,100.8,52Z" transform="translate(17.04 21.7)"/></g></g></g></svg>