<?xml version="1.0" encoding="utf-8"?>
<!-- Generator: Adobe Illustrator 22.0.1, SVG Export Plug-In . SVG Version: 6.00 Build 0)  -->
<svg version="1.1" xmlns="http://www.w3.org/2000/svg" xmlns:xlink="http://www.w3.org/1999/xlink" x="0px" y="0px"
	 viewBox="0 0 500 500" style="enable-background:new 0 0 500 500;" xml:space="preserve">
<style type="text/css">
	.st0{fill:#7B9E7B;}
	.st1{fill:none;stroke:#475649;stroke-width:0.25;stroke-miterlimit:10;stroke-dasharray:14.773,6.8941;}
	.st2{fill:none;stroke:#475649;stroke-width:0.25;stroke-miterlimit:10;}
	.st3{fill:none;stroke:#FFFFFF;stroke-miterlimit:10;}
	.st4{fill:#917040;}
	.st5{fill:#2C448C;}
	.st6{fill:#DBCDA1;}
	.st7{fill:#731989;}
	.st8{fill:#A0892A;}
	.st9{fill:#8E1B0C;}
	.st10{fill:#23190B;}
	.st11{fill:#BC9153;}
	.st12{fill:#0A6D0A;}
	.st13{fill:#A8824A;}
	.st14{fill:#994C2F;}
	.st15{fill:#35323F;}
	.st16{fill:#2F1354;}
	.st17{fill:#BAB9B6;}
	.st18{fill:#35488E;}
	.st19{fill:#726E6A;}
</style>
<g id="distancias-b">
	<circle id="intimate-space" class="st0" cx="250" cy="250" r="50"/>
	<g id="personal-space">
		<circle class="st1" cx="250" cy="250" r="100"/>
	</g>
	<circle id="social-space" class="st2" cx="250" cy="250" r="150"/>
	<circle id="covid19-space" class="st3" cx="250" cy="250" r="200"/>
</g>
<g id="personas-b">
	<g id="padre">
		<circle class="st4" cx="221.9" cy="261" r="5"/>
		<circle class="st4" cx="278.1" cy="261" r="5"/>
		<path class="st5" d="M267.7,235c-4.5-1.4-30.9-1.4-35.4,0c-11.2,3.7-15.3,25.2-15.3,25.2l9.3,3.3l4.8-8.3
			c18.9,2.4,18.9,2.4,37.9,0c0.7,1.2,4.8,8.3,4.8,8.3l9.3-3.3C283,260.3,278.9,238.8,267.7,235z"/>
		<g>
			<path class="st4" d="M241.9,251.3c1.8,2.5,4.7,4.1,8.1,4.1c3.3,0,6.2-1.6,8.1-4.1c-2.6,0.4-5.3,0.6-8.1,0.6
				C247.2,251.9,244.5,251.7,241.9,251.3z"/>
			<path d="M249.9,235.4c-5.5,0-10,4.5-10,10c0,2.2,0.7,4.3,1.9,5.9c2.6,0.4,5.3,0.6,8.1,0.6c2.7,0,5.4-0.2,8.1-0.6
				c1.2-1.7,1.9-3.7,1.9-5.9C259.9,239.9,255.4,235.4,249.9,235.4z"/>
		</g>
	</g>
	<g id="colega">
		<circle class="st6" cx="393" cy="67.7" r="5"/>
		<circle class="st6" cx="429.8" cy="110.1" r="5"/>
		<path class="st7" d="M442.6,85.2c-1.9-4.3-19.2-24.3-23.2-26.8c-10.2-6-29.1,5-29.1,5l3.6,9.1c0,0,9.4-1.9,9.4-1.8
			C414,86.6,414,86.6,428.2,99.4c-0.4,1.3-3.1,9.1-3.1,9.1l8.5,4.9C433.6,113.3,447.2,96.2,442.6,85.2z"/>
		<g>
			<path class="st6" d="M413.4,76.4c-0.7,3,0,6.3,2.2,8.8s5.3,3.7,8.4,3.4c-2-1.7-4-3.6-5.8-5.7C416.4,80.8,414.8,78.6,413.4,76.4z"
				/>
			<path class="st8" d="M430.7,72c-3.6-4.2-9.9-4.6-14.1-1c-1.7,1.5-2.7,3.3-3.2,5.3c1.4,2.3,3,4.4,4.8,6.5s3.7,4,5.8,5.7
				c2-0.2,4.1-1,5.7-2.4C433.9,82.5,434.3,76.2,430.7,72z"/>
		</g>
	</g>
	<g id="hijo-mayor">
		<circle class="st4" cx="232.9" cy="289.5" r="4"/>
		<circle class="st4" cx="204.6" cy="254.5" r="4"/>
		<path class="st9" d="M193.7,274c1.4,3.5,14.7,19.9,17.8,22c8,5.1,23.4-3.2,23.4-3.2l-2.6-7.4l-7.6,1.2c-8-12.9-8-12.9-19.1-23.6
			c0.4-1.1,2.8-7.2,2.8-7.2l-6.7-4.1C201.7,251.8,190.4,265.2,193.7,274z"/>
		<g>
			<path class="st4" d="M216.8,281.9c0.6-2.4,0.2-5-1.5-7.1s-4.1-3.1-6.6-3c1.6,1.4,3.1,3,4.4,4.7
				C214.5,278.3,215.7,280.1,216.8,281.9z"/>
			<path class="st10" d="M202.9,284.9c2.8,3.4,7.8,4,11.3,1.2c1.4-1.1,2.3-2.6,2.7-4.2c-1.1-1.8-2.3-3.6-3.7-5.3
				c-1.4-1.7-2.9-3.3-4.4-4.7c-1.6,0.1-3.3,0.6-4.7,1.8C200.6,276.4,200.1,281.5,202.9,284.9z"/>
		</g>
	</g>
	<g id="mama-hijo-menor">
		<g id="mama-hijo-menor_1_">
			<circle class="st11" cx="457.4" cy="342.4" r="3.5"/>
			<circle class="st11" cx="429.6" cy="370.2" r="3.5"/>
			<path class="st12" d="M447.6,378c2.9-1.5,16-14.6,17.5-17.5c3.7-7.4-4.9-20.1-4.9-20.1l-6.2,3c0,0,1.8,6.5,1.7,6.5
				c-10.5,8.2-10.5,8.2-18.8,18.8c-1-0.2-6.5-1.7-6.5-1.7l-3,6.2C427.5,373.1,440.2,381.7,447.6,378z"/>
			<g>
				<path class="st11" d="M452.3,357.1c-2.1-0.3-4.4,0.3-6,2c-1.6,1.6-2.3,3.9-2,6c1.1-1.5,2.3-2.9,3.7-4.3
					C449.4,359.4,450.8,358.2,452.3,357.1z"/>
				<path d="M456.2,369c2.7-2.7,2.7-7.2,0-9.9c-1.1-1.1-2.5-1.7-3.9-2c-1.5,1.1-2.9,2.3-4.3,3.7c-1.4,1.4-2.6,2.8-3.7,4.3
					c0.2,1.4,0.9,2.8,2,3.9C449.1,371.7,453.5,371.7,456.2,369z"/>
			</g>
			<circle class="st13" cx="460.6" cy="279.5" r="5"/>
			<circle class="st13" cx="460.6" cy="335.7" r="5"/>
			<path class="st14" d="M486.5,325.3c1.4-4.5,1.4-30.9,0-35.4c-3.7-11.2-25.2-15.3-25.2-15.3l-3.3,9.3l8.3,4.8
				c-2.4,18.9-2.4,18.9,0,37.9c-1.2,0.7-8.3,4.8-8.3,4.8l3.3,9.3C461.3,340.6,482.8,336.5,486.5,325.3z"/>
			<path class="st13" d="M470.3,299.5c-2.5,1.8-4.1,4.7-4.1,8.1c0,3.3,1.6,6.2,4.1,8.1c-0.4-2.6-0.6-5.3-0.6-8.1
				C469.6,304.8,469.8,302.1,470.3,299.5z"/>
		</g>
		<path class="st15" d="M487.6,303.9c-0.7,0-1.4,0.2-1.9,0.6c-1.3-4-5.1-7-9.5-7c-2.2,0-4.3,0.7-5.9,1.9c-0.4,2.6-0.6,5.3-0.6,8.1
			c0,2.7,0.2,5.4,0.6,8.1c1.7,1.2,3.7,1.9,5.9,1.9c4.5,0,8.3-3,9.6-7.1c0.5,0.3,1.2,0.5,1.9,0.5c1.9,0,3.5-1.6,3.5-3.5
			S489.5,303.9,487.6,303.9z"/>
	</g>
	<g id="abuelos">
		<circle class="st4" cx="61" cy="140.2" r="4.5"/>
		<circle class="st4" cx="80" cy="93.4" r="4.5"/>
		<path class="st16" d="M54.8,93.2c-2.7,3.3-11.6,25.3-12,29.5c-0.7,10.6,15.9,21.3,15.9,21.3l5.9-6.6l-5.3-6.8
			c8.4-14.9,8.4-14.9,12.8-31.6c1.2-0.2,8.6-1.2,8.6-1.2l0.4-8.8C81.1,89,61.7,85.2,54.8,93.2z"/>
		<path class="st4" d="M59.7,120.3c2.7-0.7,5-2.6,6.1-5.3c1.1-2.7,0.8-5.7-0.7-8.1c-0.5,2.3-1.2,4.6-2.2,6.9
			C61.9,116.1,60.9,118.2,59.7,120.3z"/>
		<path class="st17" d="M60.9,103.2c-3.7-1.5-7.6-0.4-10.1,2.4c-0.8-1.4-2.6-2-4.1-1.4c-1.7,0.7-2.4,2.6-1.7,4.3
			c0.7,1.5,2.2,2.2,3.7,2c-0.5,3.9,1.7,7.8,5.5,9.4c1.8,0.7,3.8,0.9,5.6,0.4c1.2-2,2.4-4.2,3.3-6.5s1.6-4.6,2.2-6.9
			C64.2,105.3,62.7,104,60.9,103.2z"/>
		<circle class="st11" cx="85" cy="86.5" r="5"/>
		<circle class="st11" cx="136.8" cy="64.6" r="5"/>
		<path class="st18" d="M117,44.8c-4.7,0.5-29,10.7-32.6,13.8c-8.8,7.8-4.3,29.2-4.3,29.2l9.8-0.6l1.2-9.5
			c18.3-5.2,18.3-5.2,34.9-14.8c1.1,0.8,7.6,5.8,7.6,5.8l7.3-6.6C141,62,128.8,43.9,117,44.8z"/>
		<g id="cabeza">
			<circle id="pelao" class="st11" cx="104.7" cy="61.4" r="9.5"/>
			<path id="pelaes" class="st19" d="M100.8,52c-5.1,2.2-7.4,8-5.3,13.1c0.9,2.1,2.3,3.6,4.1,4.7c2.6-0.7-4.8-11,3-13.9
				c7.9-2.5,9.5,9.1,11.8,7.6c0.4-2,0.4-4.1-0.5-6.2C111.8,52.3,105.9,49.9,100.8,52z"/>
		</g>
	</g>
</g>
</svg>
