<svg id="Capa_1" data-name="Capa 1" xmlns="http://www.w3.org/2000/svg" viewBox="0 0 508.24 472.2"><defs><style>.cls-1{fill:#7d9e7d;}.cls-2,.cls-3{fill:none;stroke:#475649;stroke-miterlimit:10;stroke-width:0.25px;}.cls-2{stroke-dasharray:14.77 6.89;}.cls-4{opacity:0.14;}.cls-5{opacity:0.15;}.cls-6{fill:#917040;}.cls-7{fill:#2c448c;}.cls-8{fill:#dbcda1;}.cls-9{fill:#731989;}.cls-10{fill:#a0892a;}.cls-11{fill:#8e1b0c;}.cls-12{fill:#23190b;}.cls-13{fill:#bc9153;}.cls-14{fill:#0a6d0a;}.cls-15{fill:#a8824a;}.cls-16{fill:#994c2f;}.cls-17{fill:#35323f;}.cls-18{fill:#2f1354;}.cls-19{fill:#bab9b6;}.cls-20{fill:#35488e;}.cls-21{fill:#726e6a;}</style></defs><title>distancia-fisica-a-sombra</title><g id="distancias-a"><circle id="intimate-space" class="cls-1" cx="266.85" cy="272.14" r="50"/><circle id="personal-space" class="cls-2" cx="266.85" cy="272.14" r="100"/><circle id="social-space" class="cls-3" cx="266.85" cy="272.14" r="150"/></g><path class="cls-4" d="M268.06,257.23,246.16,241a8.89,8.89,0,0,0-3.52-9.08L210,208.76a8.87,8.87,0,0,0-12.34,2.09l-3.19,4.5a8.9,8.9,0,1,0-3.1,4.36l-4.11,5.79a8.87,8.87,0,0,0,2.09,12.33L222,261a8.85,8.85,0,0,0,8.37,1l22.09,16.32a6.65,6.65,0,0,0,9.27-1.39l7.73-10.46A6.65,6.65,0,0,0,268.06,257.23Z"/><path class="cls-4" d="M389.59,167.11l-23-14.58a8.89,8.89,0,0,0-4.16-8.81l-34.24-20.81a8.86,8.86,0,0,0-12.15,3l-2.87,4.72a8.84,8.84,0,1,0-5.56,6.22,8.71,8.71,0,0,0,2.78-1.66l-3.69,6.07a8.87,8.87,0,0,0,3,12.15l34.24,20.81a8.85,8.85,0,0,0,8.43.4l23.18,14.7a6.65,6.65,0,0,0,9.16-2l7-11A6.65,6.65,0,0,0,389.59,167.11Z"/><path class="cls-4" d="M220.65,315.93l-18-11.43a7,7,0,0,0-3.26-6.9l-26.84-16.3a7,7,0,0,0-9.52,2.32l-2.25,3.7a6.85,6.85,0,0,0-.22-4,6.93,6.93,0,1,0-1.95,7.6l-2.89,4.75a7,7,0,0,0,2.32,9.52l26.84,16.31a6.92,6.92,0,0,0,6.6.31l18.17,11.53a5.22,5.22,0,0,0,7.17-1.61l5.46-8.61A5.21,5.21,0,0,0,220.65,315.93Z"/><path class="cls-5" d="M229.72,162.89l-21.46-20a9.07,9.07,0,0,0-2.43-10L173.66,104a10.13,10.13,0,0,0-13.84.5l-4.22,4.3a9,9,0,0,0,.89-5.39,9.81,9.81,0,1,0-8.36,10.67,9.83,9.83,0,0,0,3.39-1.13l-5.42,5.53a9.1,9.1,0,0,0,0,12.87l21.28,32.77-27.14-20.48-1.56-2.35a10.76,10.76,0,0,0-14.31-3.14l-5.45,3.26a9.46,9.46,0,0,0,2.33-5.25,10.38,10.38,0,1,0-11.38,8.66,10.51,10.51,0,0,0,3.77-.25l-7,4.2a9.56,9.56,0,0,0-3.15,13.59l25.3,37.93a10.62,10.62,0,0,0,8.66,4.62l16.82,26.29a8.05,8.05,0,0,0,10.68,2.55l13-7.45a7.18,7.18,0,0,0,2.56-10.15L163.8,190.05a9.49,9.49,0,0,0,.16-10.86l-9.51-14.27,19,5-5.77-19.12,10.91,9.79a10,10,0,0,0,9,2.2L209.28,183a7.61,7.61,0,0,0,10.39-.19l10.11-9.93A6.85,6.85,0,0,0,229.72,162.89Z"/><path class="cls-4" d="M348.17,265.84l-26.92-11.36a9.53,9.53,0,0,0-5.95-8.58l-39.91-16a9.51,9.51,0,0,0-12.33,5.29l-2.2,5.5a9.49,9.49,0,1,0-4.78,7.56,9.32,9.32,0,0,0,2.65-2.24l-2.83,7.07a9.51,9.51,0,0,0,5.29,12.33l25.66,10.27,8.56,16.51-1-1a4.86,4.86,0,0,0-6.85,0l-2.14,2.16a4.74,4.74,0,0,0,.5-2.77,4.84,4.84,0,1,0-2.56,4.85l-2.74,2.76a4.86,4.86,0,0,0,0,6.86l15.6,15.47a4.84,4.84,0,0,0,4.44,1.29l10.49,10.81a3.64,3.64,0,0,0,5.14.07l5.12-5a3.65,3.65,0,0,0,.07-5.15L311.12,312a4.87,4.87,0,0,0-1.09-5.23l-6.49-6.43-12-22.69,9.51,3.8a9.5,9.5,0,0,0,9-1.06l27.13,11.45a7.13,7.13,0,0,0,9.32-3.79L352,275.16A7.13,7.13,0,0,0,348.17,265.84Z"/><g id="personas-a"><g id="padre"><circle class="cls-6" cx="238.75" cy="283.14" r="5"/><circle class="cls-6" cx="294.95" cy="283.14" r="5"/><path class="cls-7" d="M284.55,257.14c-4.5-1.4-30.9-1.4-35.4,0-11.2,3.7-15.3,25.2-15.3,25.2l9.3,3.3,4.8-8.3c18.9,2.4,18.9,2.4,37.9,0,.7,1.2,4.8,8.3,4.8,8.3l9.3-3.3C299.85,282.44,295.75,260.94,284.55,257.14Z"/><path class="cls-6" d="M258.75,273.44a9.85,9.85,0,0,0,8.1,4.1,10.13,10.13,0,0,0,8.1-4.1,55,55,0,0,1-16.2,0Z"/><path d="M266.75,257.54a10,10,0,0,0-10,10,9.9,9.9,0,0,0,1.9,5.9,53.22,53.22,0,0,0,8.1.6,55.2,55.2,0,0,0,8.1-.6,10,10,0,0,0-8.1-15.9Z"/></g><g id="colega"><circle class="cls-8" cx="345.65" cy="154.04" r="5"/><circle class="cls-8" cx="382.35" cy="196.54" r="5"/><path class="cls-9" d="M395.25,171.64c-1.9-4.3-19.2-24.3-23.2-26.8-10.2-6-29.1,5-29.1,5l3.6,9.1s9.4-1.9,9.4-1.8c10.6,15.8,10.6,15.8,24.8,28.6-.4,1.3-3.1,9.1-3.1,9.1l8.5,4.9S399.75,182.54,395.25,171.64Z"/><path class="cls-8" d="M366,162.84a10,10,0,0,0,10.6,12.2,51.88,51.88,0,0,1-5.8-5.7A57.15,57.15,0,0,1,366,162.84Z"/><path class="cls-10" d="M383.25,158.44a10,10,0,0,0-14.1-1,10.17,10.17,0,0,0-3.2,5.3,49.48,49.48,0,0,0,4.8,6.5,44.57,44.57,0,0,0,5.8,5.7,10.34,10.34,0,0,0,5.7-2.4A9.89,9.89,0,0,0,383.25,158.44Z"/></g><g id="hijo-mayor"><circle class="cls-6" cx="235.05" cy="329.34" r="4"/><circle class="cls-6" cx="206.85" cy="294.44" r="4"/><path class="cls-11" d="M195.85,313.94c1.4,3.5,14.7,19.9,17.8,22,8,5.1,23.4-3.2,23.4-3.2l-2.6-7.4-7.6,1.2c-8-12.9-8-12.9-19.1-23.6.4-1.1,2.8-7.2,2.8-7.2l-6.7-4.1C203.85,291.74,192.55,305.14,195.85,313.94Z"/><path class="cls-6" d="M219,321.84a8,8,0,0,0-1.5-7.1,7.94,7.94,0,0,0-6.6-3,32.66,32.66,0,0,1,4.4,4.7A34.67,34.67,0,0,1,219,321.84Z"/><path class="cls-12" d="M205.05,324.84a8.07,8.07,0,0,0,11.3,1.2,7.68,7.68,0,0,0,2.7-4.2,46,46,0,0,0-3.7-5.3,49.73,49.73,0,0,0-4.4-4.7,8,8,0,0,0-5.9,13Z"/></g><g id="mama-hijo-menor"><g id="mama-hijo-menor-2" data-name="mama-hijo-menor"><circle class="cls-13" cx="326.55" cy="307.44" r="3.5"/><circle class="cls-13" cx="298.75" cy="335.24" r="3.5"/><path class="cls-14" d="M316.75,342.94c2.9-1.5,16-14.6,17.5-17.5,3.7-7.4-4.9-20.1-4.9-20.1l-6.2,3s1.8,6.5,1.7,6.5c-10.5,8.2-10.5,8.2-18.8,18.8-1-.2-6.5-1.7-6.5-1.7l-3,6.2C296.65,338,309.35,346.64,316.75,342.94Z"/><path class="cls-13" d="M321.45,322.14a6.87,6.87,0,0,0-6,2,7.17,7.17,0,0,0-2,6,37.92,37.92,0,0,1,8-8Z"/><path d="M325.35,333.94a7.06,7.06,0,0,0,0-9.9,7.7,7.7,0,0,0-3.9-2,37.92,37.92,0,0,0-8,8,7,7,0,0,0,2,3.9A6.88,6.88,0,0,0,325.35,333.94Z"/><circle class="cls-15" cx="329.75" cy="244.54" r="5"/><circle class="cls-15" cx="329.75" cy="300.64" r="5"/><path class="cls-16" d="M355.65,290.34c1.4-4.5,1.4-30.9,0-35.4-3.7-11.2-25.2-15.3-25.2-15.3l-3.3,9.3,8.3,4.8c-2.4,18.9-2.4,18.9,0,37.9l-8.3,4.8,3.3,9.3C330.45,305.64,352,301.54,355.65,290.34Z"/><path class="cls-15" d="M339.45,264.44a9.85,9.85,0,0,0-4.1,8.1,10.13,10.13,0,0,0,4.1,8.1,53.22,53.22,0,0,1-.6-8.1A36.86,36.86,0,0,1,339.45,264.44Z"/></g><path class="cls-17" d="M356.75,268.94a3.08,3.08,0,0,0-1.9.6,10.12,10.12,0,0,0-9.5-7,9.9,9.9,0,0,0-5.9,1.9,53.22,53.22,0,0,0-.6,8.1,55.2,55.2,0,0,0,.6,8.1,10.06,10.06,0,0,0,15.5-5.2,3.83,3.83,0,0,0,1.9.5,3.54,3.54,0,0,0,3.5-3.5A3.63,3.63,0,0,0,356.75,268.94Z"/></g><g id="abuelos"><circle class="cls-6" cx="176.25" cy="256.54" r="4.5"/><circle class="cls-6" cx="197.05" cy="210.54" r="4.5"/><path class="cls-18" d="M171.85,209.34c-2.8,3.2-12.6,24.9-13.1,29.1-1.1,10.6,15,22,15,22l6.1-6.4-5.1-7c8.9-14.6,8.9-14.6,14-31.1,1.2-.2,8.6-.9,8.6-.9l.7-8.8C198.25,206.14,179.15,201.54,171.85,209.34Z"/><path class="cls-6" d="M175.65,236.54a9,9,0,0,0,6.3-5.1,8.88,8.88,0,0,0-.4-8.1,42.3,42.3,0,0,1-2.4,6.8A43.63,43.63,0,0,1,175.65,236.54Z"/><path class="cls-19" d="M177.55,219.54a9,9,0,0,0-10.2,2,3.25,3.25,0,0,0-5.9,2.7,3.37,3.37,0,0,0,3.6,2.1,9,9,0,0,0,10.8,10.2,43.63,43.63,0,0,0,3.5-6.4,46,46,0,0,0,2.4-6.8A9.67,9.67,0,0,0,177.55,219.54Z"/><circle class="cls-13" cx="202.25" cy="203.74" r="5"/><circle class="cls-13" cx="254.85" cy="183.94" r="5"/><path class="cls-20" d="M236,163.34c-4.7.3-29.4,9.6-33.1,12.5-9.1,7.5-5.4,29-5.4,29l9.8-.3,1.5-9.5c18.5-4.4,18.5-4.4,35.4-13.4,1.1.8,7.4,6.1,7.4,6.1l7.5-6.3C259.15,181.54,247.75,162.84,236,163.34Z"/><g id="cabeza"><circle id="pelao" class="cls-13" cx="222.95" cy="179.44" r="9.5"/><path id="pelaes" class="cls-21" d="M219.45,169.84a10,10,0,0,0-5.8,12.9,9.84,9.84,0,0,0,3.9,4.8c2.6-.6-4.4-11.2,3.6-13.8,8-2.2,9.2,9.4,11.5,8a10.17,10.17,0,0,0-.3-6.2A10.28,10.28,0,0,0,219.45,169.84Z"/></g></g></g></svg>