<?xml version="1.0" encoding="utf-8"?>
<!-- Generator: Adobe Illustrator 22.0.1, SVG Export Plug-In . SVG Version: 6.00 Build 0)  -->
<svg version="1.1" xmlns="http://www.w3.org/2000/svg" xmlns:xlink="http://www.w3.org/1999/xlink" x="0px" y="0px"
	 viewBox="0 0 500 500" style="enable-background:new 0 0 500 500;" xml:space="preserve">
<style type="text/css">
	.st0{fill:#70926C;}
	.st1{fill:#383839;}
	.st2{fill:#D4A375;}
	.st3{fill:#D3C1B2;}
	.st4{fill:#161616;}
</style>
<g id="Capa_1">
</g>
<g id="Capa_2">
	<polygon class="st0" points="263,129 188,101 177,108 207,199 208,271 206,287 216,369 231,353 234,279 	"/>
	<polygon class="st1" points="225,238 278,238 271,309 260,337 266,374 256,384 256,399 240,376 242,336 	"/>
	<path class="st2" d="M305,120l-48,11l-47-10l-14,4l22,39l1,81l63-2l5-80l25-35L305,120z M253,158l-29-13l53-1L253,158z"/>
	<circle class="st3" cx="251.5" cy="139.5" r="19.5"/>
	<polygon class="st4" points="241,332.3 241,299 226.1,245.7 	"/>
</g>
</svg>
